<svg width="9" height="60" viewBox="0 0 9 60" fill="none" xmlns="http://www.w3.org/2000/svg">
<g clip-path="url(#clip0_1_2)">
<path d="M8.00001 4.00254C8.00142 2.34569 6.65941 1.00141 5.00256 1C3.3457 0.998594 2.00142 2.3406 2.00001 3.99745C1.99861 5.65431 3.34061 6.99859 4.99747 7C6.65432 7.0014 7.9986 5.6594 8.00001 4.00254Z" fill="#C4C4C4"/>
<path d="M7.97795 30.0025C7.97935 28.3457 6.63735 27.0014 4.98049 27C3.32364 26.9986 1.97935 28.3406 1.97795 29.9975C1.97654 31.6543 3.31855 32.9986 4.9754 33C6.63226 33.0014 7.97654 31.6594 7.97795 30.0025Z" fill="#C4C4C4"/>
<path d="M7.95588 56.0025C7.95729 54.3457 6.61528 53.0014 4.95843 53C3.30158 52.9986 1.95729 54.3406 1.95588 55.9974C1.95448 57.6543 3.29648 58.9986 4.95334 59C6.61019 59.0014 7.95448 57.6594 7.95588 56.0025Z" fill="#C4C4C4"/>
</g>
<defs>
<clipPath id="clip0_1_2">
<rect width="58.0059" height="7.04921" fill="white" transform="translate(0.95079 59) rotate(-89.9514)"/>
</clipPath>
</defs>
</svg>
